0
SECTION
2
HEADER
9
$ACADVER
1
AC1021
9
$ACADMAINTVER
70
    25
9
$DWGCODEPAGE
3
ANSI_1252
9
$LASTSAVEDBY
1
joshua.hewetson
9
$INSBASE
10
0.0
20
0.0
30
0.0
9
$EXTMIN
10
-42.08953221060995
20
8.739859394762387
30
0.0
9
$EXTMAX
10
22.95576221169404
20
23.77922947335588
30
0.0
9
$LIMMIN
10
0.0
20
0.0
9
$LIMMAX
10
279.4
20
215.9
9
$ORTHOMODE
70
     0
9
$REGENMODE
70
     1
9
$FILLMODE
70
     1
9
$QTEXTMODE
70
     0
9
$MIRRTEXT
70
     0
9
$LTSCALE
40
1.0
9
$ATTMODE
70
     1
9
$TEXTSIZE
40
0.25
9
$TRACEWID
40
1.0
9
$TEXTSTYLE
7
Standard
9
$CLAYER
8
0
9
$CELTYPE
6
ByLayer
9
$CECOLOR
62
     7
9
$CELTSCALE
40
1.0
9
$DISPSILH
70
     0
9
$DIMSCALE
40
1.0
9
$DIMASZ
40
0.0098425196850394
9
$DIMEXO
40
0.0024606299212598
9
$DIMDLI
40
0.0147637795275591
9
$DIMRND
40
0.01
9
$DIMDLE
40
0.0
9
$DIMEXE
40
0.0049212598425197
9
$DIMTP
40
0.0
9
$DIMTM
40
0.0
9
$DIMTXT
40
0.0058737617475235
9
$DIMCEN
40
0.0
9
$DIMTSZ
40
0.0
9
$DIMTOL
70
     0
9
$DIMLIM
70
     0
9
$DIMTIH
70
     1
9
$DIMTOH
70
     0
9
$DIMSE1
70
     0
9
$DIMSE2
70
     0
9
$DIMTAD
70
     1
9
$DIMZIN
70
     1
9
$DIMBLK
1

9
$DIMASO
70
     1
9
$DIMSHO
70
     1
9
$DIMPOST
1
 mm
9
$DIMAPOST
1
 mm
9
$DIMALT
70
     0
9
$DIMALTD
70
     2
9
$DIMALTF
40
1.0
9
$DIMLFAC
40
1.0
9
$DIMTOFL
70
     1
9
$DIMTVP
40
0.0
9
$DIMTIX
70
     0
9
$DIMSOXD
70
     0
9
$DIMSAH
70
     0
9
$DIMBLK1
1

9
$DIMBLK2
1

9
$DIMSTYLE
2
Standard
9
$DIMCLRD
70
     0
9
$DIMCLRE
70
     0
9
$DIMCLRT
70
     0
9
$DIMTFAC
40
1.0
9
$DIMGAP
40
0.0024606299212598
9
$DIMJUST
70
     0
9
$DIMSD1
70
     0
9
$DIMSD2
70
     0
9
$DIMTOLJ
70
     1
9
$DIMTZIN
70
     0
9
$DIMALTZ
70
     0
9
$DIMALTTZ
70
     0
9
$DIMUPT
70
     0
9
$DIMDEC
70
     2
9
$DIMTDEC
70
     3
9
$DIMALTU
70
     2
9
$DIMALTTD
70
     2
9
$DIMTXSTY
7
Text Style 1
9
$DIMAUNIT
70
     0
9
$DIMADEC
70
     2
9
$DIMALTRND
40
0.01
9
$DIMAZIN
70
     0
9
$DIMDSEP
70
    46
9
$DIMATFIT
70
     3
9
$DIMFRAC
70
     2
9
$DIMLDRBLK
1

9
$DIMLUNIT
70
     2
9
$DIMLWD
70
    -2
9
$DIMLWE
70
    -2
9
$DIMTMOVE
70
     0
9
$DIMFXL
40
1.0
9
$DIMFXLON
70
     0
9
$DIMJOGANG
40
0.7853981633974483
9
$DIMTFILL
70
     0
9
$DIMTFILLCLR
70
     7
9
$DIMARCSYM
70
     0
9
$DIMLTYPE
6
ByBlock
9
$DIMLTEX1
6
ByBlock
9
$DIMLTEX2
6
ByBlock
9
$LUNITS
70
     2
9
$LUPREC
70
     2
9
$SKETCHINC
40
1.0
9
$FILLETRAD
40
1.0
9
$AUNITS
70
     0
9
$AUPREC
70
     2
9
$MENU
1
.
9
$ELEVATION
40
0.0
9
$PELEVATION
40
0.0
9
$THICKNESS
40
0.0
9
$LIMCHECK
70
     0
9
$CHAMFERA
40
0.0
9
$CHAMFERB
40
0.0
9
$CHAMFERC
40
0.0
9
$CHAMFERD
40
0.0
9
$SKPOLY
70
     0
9
$TDCREATE
40
2458086.420484213
9
$TDUCREATE
40
2458085.920484213
9
$TDUPDATE
40
2461286.754033831
9
$TDUUPDATE
40
2461286.254033831
9
$TDINDWG
40
0.0150396296
9
$TDUSRTIMER
40
0.0011180671
9
$USRTIMER
70
     1
9
$ANGBASE
50
0.0
9
$ANGDIR
70
     0
9
$PDMODE
70
     0
9
$PDSIZE
40
0.0
9
$PLINEWID
40
0.0
9
$SPLFRAME
70
     0
9
$SPLINETYPE
70
     5
9
$SPLINESEGS
70
    20
9
$HANDSEED
5
1EB
9
$SURFTAB1
70
     6
9
$SURFTAB2
70
     6
9
$SURFTYPE
70
     6
9
$SURFU
70
     6
9
$SURFV
70
     6
9
$UCSBASE
2

9
$UCSNAME
2

9
$UCSORG
10
0.0
20
0.0
30
0.0
9
$UCSXDIR
10
1.0
20
0.0
30
0.0
9
$UCSYDIR
10
0.0
20
1.0
30
0.0
9
$UCSORTHOREF
2

9
$UCSORTHOVIEW
70
     0
9
$UCSORGTOP
10
0.0
20
0.0
30
0.0
9
$UCSORGBOTTOM
10
0.0
20
0.0
30
0.0
9
$UCSORGLEFT
10
0.0
20
0.0
30
0.0
9
$UCSORGRIGHT
10
0.0
20
0.0
30
0.0
9
$UCSORGFRONT
10
0.0
20
0.0
30
0.0
9
$UCSORGBACK
10
0.0
20
0.0
30
0.0
9
$PUCSBASE
2

9
$PUCSNAME
2

9
$PUCSORG
10
0.0
20
0.0
30
0.0
9
$PUCSXDIR
10
1.0
20
0.0
30
0.0
9
$PUCSYDIR
10
0.0
20
1.0
30
0.0
9
$PUCSORTHOREF
2

9
$PUCSORTHOVIEW
70
     0
9
$PUCSORGTOP
10
0.0
20
0.0
30
0.0
9
$PUCSORGBOTTOM
10
0.0
20
0.0
30
0.0
9
$PUCSORGLEFT
10
0.0
20
0.0
30
0.0
9
$PUCSORGRIGHT
10
0.0
20
0.0
30
0.0
9
$PUCSORGFRONT
10
0.0
20
0.0
30
0.0
9
$PUCSORGBACK
10
0.0
20
0.0
30
0.0
9
$USERI1
70
     0
9
$USERI2
70
     0
9
$USERI3
70
     0
9
$USERI4
70
     0
9
$USERI5
70
     0
9
$USERR1
40
0.0
9
$USERR2
40
0.0
9
$USERR3
40
0.0
9
$USERR4
40
0.0
9
$USERR5
40
0.0
9
$WORLDVIEW
70
     1
9
$SHADEDGE
70
     3
9
$SHADEDIF
70
    70
9
$TILEMODE
70
     1
9
$MAXACTVP
70
    64
9
$PINSBASE
10
0.0
20
0.0
30
0.0
9
$PLIMCHECK
70
     0
9
$PEXTMIN
10
0.0
20
0.0
30
0.0
9
$PEXTMAX
10
0.0
20
0.0
30
0.0
9
$PLIMMIN
10
0.0
20
0.0
9
$PLIMMAX
10
0.0
20
0.0
9
$UNITMODE
70
     0
9
$VISRETAIN
70
     1
9
$PLINEGEN
70
     0
9
$PSLTSCALE
70
     0
9
$TREEDEPTH
70
  3020
9
$CMLSTYLE
2
Standard
9
$CMLJUST
70
     0
9
$CMLSCALE
40
1.0
9
$PROXYGRAPHICS
70
     1
9
$MEASUREMENT
70
     1
9
$CELWEIGHT
370
    -1
9
$ENDCAPS
280
     0
9
$JOINSTYLE
280
     0
9
$LWDISPLAY
290
     0
9
$INSUNITS
70
     1
9
$HYPERLINKBASE
1

9
$STYLESHEET
1

9
$XEDIT
290
     1
9
$CEPSNTYPE
380
     0
9
$PSTYLEMODE
290
     1
9
$FINGERPRINTGUID
2
{d9aa9ca3-6639-42c3-99e3-d76c4ced6ae4}
9
$VERSIONGUID
2
{FAEB1C32-E019-11D5-929B-00C0DF256EC4}
9
$EXTNAMES
290
     1
9
$PSVPSCALE
40
0.0
9
$OLESTARTUP
290
     0
9
$SORTENTS
280
   127
9
$INDEXCTL
280
     0
9
$HIDETEXT
280
     1
9
$XCLIPFRAME
290
     0
9
$HALOGAP
280
     0
9
$OBSCOLOR
70
   257
9
$OBSLTYPE
280
     0
9
$INTERSECTIONDISPLAY
280
     0
9
$INTERSECTIONCOLOR
70
   257
9
$DIMASSOC
280
     2
9
$PROJECTNAME
1

9
$CAMERADISPLAY
290
     0
9
$LENSLENGTH
40
50.0
9
$CAMERAHEIGHT
40
0.0
9
$STEPSPERSEC
40
2.0
9
$STEPSIZE
40
6.0
9
$3DDWFPREC
40
2.0
9
$PSOLWIDTH
40
0.25
9
$PSOLHEIGHT
40
4.0
9
$LOFTANG1
40
1.570796326794897
9
$LOFTANG2
40
1.570796326794897
9
$LOFTMAG1
40
0.0
9
$LOFTMAG2
40
0.0
9
$LOFTPARAM
70
     7
9
$LOFTNORMALS
280
     1
9
$LATITUDE
40
37.795
9
$LONGITUDE
40
-122.394
9
$NORTHDIRECTION
40
0.0
9
$TIMEZONE
70
 -8000
9
$LIGHTGLYPHDISPLAY
280
     1
9
$TILEMODELIGHTSYNCH
280
     1
9
$CMATERIAL
347
44
9
$SOLIDHIST
280
     0
9
$SHOWHIST
280
     1
9
$DWFFRAME
280
     2
9
$DGNFRAME
280
     2
9
$REALWORLDSCALE
290
     1
9
$INTERFERECOLOR
62
   256
9
$CSHADOW
280
     0
9
$SHADOWPLANELOCATION
40
0.0
0
ENDSEC
0
SECTION
2
ENTITIES
0
LINE
5
18B
102
{ACAD_XDICTIONARY
360
18C
102
}
330
1F
100
AcDbEntity
8
0
6
Continuous
62
     7
370
     0
100
AcDbLine
10
-38.98483757063116
20
23.75954443405914
30
0.0
11
-35.0455359098919
21
19.25954443594554
31
0.0
0
LINE
5
18E
102
{ACAD_XDICTIONARY
360
18F
102
}
330
1F
100
AcDbEntity
8
0
6
Continuous
62
     7
370
     0
100
AcDbLine
10
-32.27071159764068
20
23.75954443405914
30
0.0
11
-29.98112087330549
21
19.42233513363618
31
0.0
0
LINE
5
191
102
{ACAD_XDICTIONARY
360
192
102
}
330
1F
100
AcDbEntity
8
0
6
Continuous
62
     7
370
     0
100
AcDbLine
10
-42.0698471713132
20
17.62582350625468
30
0.0
11
-38.98483757063116
21
23.75954443405914
31
0.0
0
LINE
5
194
102
{ACAD_XDICTIONARY
360
195
102
}
330
1F
100
AcDbEntity
8
0
6
Continuous
62
     7
370
     0
100
AcDbLine
10
-35.0455359098919
20
19.25954443594554
30
0.0
11
-32.27071159764068
21
23.75954443405914
31
0.0
0
LINE
5
197
102
{ACAD_XDICTIONARY
360
198
102
}
330
1F
100
AcDbEntity
8
0
6
Continuous
62
     7
370
     0
100
AcDbLine
10
19.85106757171525
20
23.75954443405913
30
0.0
11
15.91176591097599
21
19.25954443594554
31
0.0
0
LINE
5
19A
102
{ACAD_XDICTIONARY
360
19B
102
}
330
1F
100
AcDbEntity
8
0
6
Continuous
62
     7
370
     0
100
AcDbLine
10
22.93607717239729
20
17.62582350625467
30
0.0
11
14.06979810020175
21
8.759544434059134
31
0.0
0
LINE
5
19D
102
{ACAD_XDICTIONARY
360
19E
102
}
330
1F
100
AcDbEntity
8
0
6
Continuous
62
     7
370
     0
100
AcDbLine
10
22.93607717239729
20
17.62582350625467
30
0.0
11
19.85106757171525
21
23.75954443405913
31
0.0
0
ELLIPSE
5
1A0
102
{ACAD_XDICTIONARY
360
1A1
102
}
330
1F
100
AcDbEntity
8
0
6
Continuous
62
     7
370
     0
100
AcDbEllipse
10
-23.91491364711862
20
15.92699771703252
30
0.0
11
4.536468669074821E-16
21
-7.408615565293253
31
0.0
210
0.0
220
0.0
230
1.0
40
0.9286560620530064
41
2.128145208006223
42
4.221065074465415
0
SPLINE
5
1A3
102
{ACAD_XDICTIONARY
360
1A4
102
}
330
1F
100
AcDbEntity
8
0
6
Continuous
62
     7
370
     0
100
AcDbSpline
210
0.0
220
0.0
230
1.0
70
     8
71
     3
72
    26
73
    22
74
     0
42
0.0
43
0.0
40
0.0
40
0.0
40
0.0
40
0.0
40
0.0526315789473684
40
0.1052631578947368
40
0.1578947368421053
40
0.2105263157894737
40
0.2631578947368421
40
0.3157894736842105
40
0.3684210526315789
40
0.4210526315789473
40
0.4736842105263158
40
0.5263157894736842
40
0.5789473684210527
40
0.631578947368421
40
0.6842105263157895
40
0.7368421052631579
40
0.7894736842105263
40
0.8421052631578947
40
0.8947368421052632
40
0.9473684210526315
40
1.0
40
1.0
40
1.0
40
1.0
10
15.91176591097599
20
19.25954443594554
30
0.0
10
15.76958794973689
20
19.70721885513643
30
0.0
10
15.48523202725846
20
20.60256769351821
30
0.0
10
14.1246429129518
20
22.31187001927054
30
0.0
10
12.76405379864502
20
22.71884676349731
30
0.0
10
11.32787640021025
20
22.88163746118795
30
0.0
10
10.04287557003159
20
22.23047467042516
30
0.0
10
7.926403614443418
20
20.52117234467294
30
0.0
10
6.641402784264757
20
18.81187001892061
30
0.0
10
3.995812839779548
20
16.85838164663226
30
0.0
10
2.332870588960192
20
16.20721885586948
30
0.0
10
-0.2371310713969015
20
15.80024211164271
30
0.0
10
-3.411839004779265
20
16.04442815817873
30
0.0
10
-6.208605517520935
20
17.18396304201366
30
0.0
10
-8.929783746134374
20
19.21884676314738
30
0.0
10
-10.8950791334662
20
20.43977699582757
30
0.0
10
-12.7091979525419
20
21.90489327504377
30
0.0
10
-15.58155274949854
20
23.4615793185315
30
0.0
10
-17.39567156715691
20
22.2711723442008
30
0.0
10
-17.84920127192584
20
21.13163746036588
30
0.0
10
-18.00045574796889
20
20.27434395451911
30
0.0
10
-18.0760829859903
20
19.84569720159578
30
0.0
0
LINE
5
1A6
102
{ACAD_XDICTIONARY
360
1A7
102
}
330
1F
100
AcDbEntity
8
0
6
Continuous
62
     7
370
     0
100
AcDbLine
10
-33.20356809911766
20
8.759544434059137
30
0.0
11
14.06979810020175
21
8.759544434059134
31
0.0
0
LINE
5
1A9
102
{ACAD_XDICTIONARY
360
1AA
102
}
330
1F
100
AcDbEntity
8
0
6
Continuous
62
     7
370
     0
100
AcDbLine
10
-42.0698471713132
20
17.62582350625468
30
0.0
11
-33.20356809911766
21
8.759544434059137
31
0.0
0
VIEWPORT
5
1AC
330
1B
100
AcDbEntity
67
     1
8
0
100
AcDbViewport
10
0.5
20
0.5
30
0.0
40
1.0
41
1.0
68
     1
69
     1
12
0.5
22
0.5
13
0.0
23
0.0
14
0.5
24
0.5
15
0.5
25
0.5
16
0.0
26
0.0
36
1.0
17
0.0
27
0.0
37
0.0
42
50.0
43
0.0
44
0.0
45
1.0
50
0.0
51
0.0
72
  1000
90
    32800
1

281
     0
71
     1
74
     0
110
0.0
120
0.0
130
0.0
111
1.0
121
0.0
131
0.0
112
0.0
122
1.0
132
0.0
79
     0
146
0.0
170
     0
61
     5
348
2F
292
     1
282
     1
141
0.0
142
0.0
63
   256
0
ENDSEC
0
EOF
